# xmcd
#
# Track frame offsets:
#        150
#        15373
#        30350
#        43040
#
# Disc length: 875 seconds
#
# Revision: 1
# Processed by: cddbd v1.5.1PL0 Copyright (c) Steve Scherf et al.
# Submitted via: ExactAudioCopy v0.95a5
#
DISCID=1f036904
DTITLE=Cocteau Twins - Peppermint Pig
DYEAR=1983
DGENRE=
TTITLE0=Peppermint Pig (7" Version)
TTITLE1=Laugh Lines
TTITLE2=Hazel
TTITLE3=Peppermint Pig (12" Version)
EXTD=
EXTT0=
EXTT1=
EXTT2=
EXTT3=
PLAYORDER=
